<mxfile host="Electron" modified="2024-05-11T12:27:36.838Z" agent="Mozilla/5.0 (Windows NT 10.0; Win64; x64) AppleWebKit/537.36 (KHTML, like Gecko) draw.io/23.1.5 Chrome/120.0.6099.109 Electron/28.1.0 Safari/537.36" etag="SkzgxwqMIlD6RWkCOH7E" version="23.1.5" type="device">
  <diagram name="Strona-1" id="WXaSy0kc8hUYeSN_kpiZ">
    <mxGraphModel dx="797" dy="532" grid="1" gridSize="10" guides="1" tooltips="1" connect="1" arrows="1" fold="1" page="1" pageScale="1" pageWidth="827" pageHeight="583" math="0" shadow="0">
      <root>
        <mxCell id="0" />
        <mxCell id="1" parent="0" />
        <mxCell id="qXCgFIXHSSezZndKWwVs-121" style="edgeStyle=orthogonalEdgeStyle;rounded=0;orthogonalLoop=1;jettySize=auto;html=1;exitX=1;exitY=0.5;exitDx=0;exitDy=0;entryX=0.421;entryY=0.025;entryDx=0;entryDy=0;entryPerimeter=0;fillColor=#a20025;strokeColor=#6F0000;" edge="1" parent="1" source="qXCgFIXHSSezZndKWwVs-106" target="qXCgFIXHSSezZndKWwVs-91">
          <mxGeometry relative="1" as="geometry" />
        </mxCell>
        <mxCell id="qXCgFIXHSSezZndKWwVs-96" value="len, start_addr" style="edgeStyle=orthogonalEdgeStyle;rounded=0;orthogonalLoop=1;jettySize=auto;html=1;exitX=0;exitY=0.5;exitDx=0;exitDy=0;entryX=0.75;entryY=1;entryDx=0;entryDy=0;strokeWidth=3;" edge="1" parent="1" source="qXCgFIXHSSezZndKWwVs-83" target="qXCgFIXHSSezZndKWwVs-89">
          <mxGeometry x="0.0011" relative="1" as="geometry">
            <mxPoint as="offset" />
          </mxGeometry>
        </mxCell>
        <mxCell id="qXCgFIXHSSezZndKWwVs-98" value="start" style="edgeStyle=orthogonalEdgeStyle;rounded=0;orthogonalLoop=1;jettySize=auto;html=1;exitX=0;exitY=0.75;exitDx=0;exitDy=0;entryX=0.25;entryY=1;entryDx=0;entryDy=0;" edge="1" parent="1" source="qXCgFIXHSSezZndKWwVs-83" target="qXCgFIXHSSezZndKWwVs-89">
          <mxGeometry relative="1" as="geometry" />
        </mxCell>
        <mxCell id="qXCgFIXHSSezZndKWwVs-103" style="edgeStyle=orthogonalEdgeStyle;rounded=0;orthogonalLoop=1;jettySize=auto;html=1;exitX=0;exitY=0.25;exitDx=0;exitDy=0;entryX=-0.009;entryY=0.837;entryDx=0;entryDy=0;strokeWidth=4;entryPerimeter=0;" edge="1" parent="1" source="qXCgFIXHSSezZndKWwVs-83" target="qXCgFIXHSSezZndKWwVs-3">
          <mxGeometry relative="1" as="geometry">
            <Array as="points">
              <mxPoint x="110" y="485" />
              <mxPoint x="110" y="144" />
            </Array>
          </mxGeometry>
        </mxCell>
        <mxCell id="qXCgFIXHSSezZndKWwVs-104" value="config" style="edgeLabel;html=1;align=center;verticalAlign=middle;resizable=0;points=[];" vertex="1" connectable="0" parent="qXCgFIXHSSezZndKWwVs-103">
          <mxGeometry x="-0.1673" y="-2" relative="1" as="geometry">
            <mxPoint x="6" y="-13" as="offset" />
          </mxGeometry>
        </mxCell>
        <mxCell id="qXCgFIXHSSezZndKWwVs-111" style="edgeStyle=orthogonalEdgeStyle;rounded=0;orthogonalLoop=1;jettySize=auto;html=1;exitX=0;exitY=0.25;exitDx=0;exitDy=0;entryX=0;entryY=0;entryDx=0;entryDy=0;strokeWidth=4;" edge="1" parent="1" source="qXCgFIXHSSezZndKWwVs-83" target="qXCgFIXHSSezZndKWwVs-105">
          <mxGeometry relative="1" as="geometry">
            <Array as="points">
              <mxPoint x="110" y="485" />
              <mxPoint x="110" y="228" />
            </Array>
          </mxGeometry>
        </mxCell>
        <mxCell id="qXCgFIXHSSezZndKWwVs-112" style="edgeStyle=orthogonalEdgeStyle;rounded=0;orthogonalLoop=1;jettySize=auto;html=1;exitX=0;exitY=0.25;exitDx=0;exitDy=0;entryX=0;entryY=0;entryDx=0;entryDy=0;strokeWidth=4;" edge="1" parent="1" source="qXCgFIXHSSezZndKWwVs-83" target="qXCgFIXHSSezZndKWwVs-106">
          <mxGeometry relative="1" as="geometry">
            <Array as="points">
              <mxPoint x="110" y="485" />
              <mxPoint x="110" y="292" />
            </Array>
          </mxGeometry>
        </mxCell>
        <mxCell id="qXCgFIXHSSezZndKWwVs-113" style="edgeStyle=orthogonalEdgeStyle;rounded=0;orthogonalLoop=1;jettySize=auto;html=1;exitX=0;exitY=0.25;exitDx=0;exitDy=0;entryX=0;entryY=0.25;entryDx=0;entryDy=0;strokeWidth=4;" edge="1" parent="1" source="qXCgFIXHSSezZndKWwVs-83" target="qXCgFIXHSSezZndKWwVs-107">
          <mxGeometry relative="1" as="geometry">
            <Array as="points">
              <mxPoint x="110" y="485" />
              <mxPoint x="110" y="371" />
            </Array>
          </mxGeometry>
        </mxCell>
        <mxCell id="qXCgFIXHSSezZndKWwVs-83" value="Registers" style="rounded=0;whiteSpace=wrap;html=1;" vertex="1" parent="1">
          <mxGeometry x="577" y="465" width="250" height="80" as="geometry" />
        </mxCell>
        <mxCell id="qXCgFIXHSSezZndKWwVs-50" value="sort&lt;br&gt;&lt;br&gt;&lt;div&gt;&lt;br&gt;&lt;/div&gt;&lt;div&gt;&lt;br&gt;&lt;/div&gt;&lt;div&gt;&lt;br&gt;&lt;/div&gt;&lt;div&gt;&lt;br&gt;&lt;/div&gt;" style="rounded=0;whiteSpace=wrap;html=1;" vertex="1" parent="1">
          <mxGeometry x="500" y="31.5" width="150" height="98.5" as="geometry" />
        </mxCell>
        <mxCell id="qXCgFIXHSSezZndKWwVs-130" style="edgeStyle=orthogonalEdgeStyle;rounded=0;orthogonalLoop=1;jettySize=auto;html=1;exitX=1;exitY=0.75;exitDx=0;exitDy=0;entryX=0;entryY=0.75;entryDx=0;entryDy=0;strokeWidth=4;" edge="1" parent="1" source="qXCgFIXHSSezZndKWwVs-1" target="qXCgFIXHSSezZndKWwVs-105">
          <mxGeometry relative="1" as="geometry">
            <Array as="points">
              <mxPoint x="90" y="123" />
              <mxPoint x="90" y="267" />
            </Array>
          </mxGeometry>
        </mxCell>
        <mxCell id="qXCgFIXHSSezZndKWwVs-131" style="edgeStyle=orthogonalEdgeStyle;rounded=0;orthogonalLoop=1;jettySize=auto;html=1;exitX=1;exitY=0.75;exitDx=0;exitDy=0;entryX=0;entryY=0.75;entryDx=0;entryDy=0;strokeWidth=4;" edge="1" parent="1" source="qXCgFIXHSSezZndKWwVs-1" target="qXCgFIXHSSezZndKWwVs-106">
          <mxGeometry relative="1" as="geometry">
            <Array as="points">
              <mxPoint x="90" y="123" />
              <mxPoint x="90" y="331" />
            </Array>
          </mxGeometry>
        </mxCell>
        <mxCell id="qXCgFIXHSSezZndKWwVs-133" style="edgeStyle=orthogonalEdgeStyle;rounded=0;orthogonalLoop=1;jettySize=auto;html=1;exitX=1;exitY=0.75;exitDx=0;exitDy=0;entryX=0;entryY=0.75;entryDx=0;entryDy=0;strokeWidth=4;" edge="1" parent="1" source="qXCgFIXHSSezZndKWwVs-1" target="qXCgFIXHSSezZndKWwVs-107">
          <mxGeometry relative="1" as="geometry">
            <Array as="points">
              <mxPoint x="90" y="123" />
              <mxPoint x="90" y="397" />
            </Array>
          </mxGeometry>
        </mxCell>
        <mxCell id="qXCgFIXHSSezZndKWwVs-1" value="IDMA" style="rounded=0;whiteSpace=wrap;html=1;" vertex="1" parent="1">
          <mxGeometry x="30" y="40" width="50" height="110" as="geometry" />
        </mxCell>
        <mxCell id="qXCgFIXHSSezZndKWwVs-2" value="" style="shape=flexArrow;endArrow=classic;html=1;rounded=0;entryX=0;entryY=0.5;entryDx=0;entryDy=0;" edge="1" parent="1" target="qXCgFIXHSSezZndKWwVs-1">
          <mxGeometry width="50" height="50" relative="1" as="geometry">
            <mxPoint y="95" as="sourcePoint" />
            <mxPoint x="230" y="180" as="targetPoint" />
          </mxGeometry>
        </mxCell>
        <mxCell id="qXCgFIXHSSezZndKWwVs-3" value="Core&amp;nbsp;&lt;br&gt;&lt;div&gt;&lt;br&gt;&lt;/div&gt;&lt;div&gt;&lt;br&gt;&lt;/div&gt;&lt;div&gt;&lt;br&gt;&lt;/div&gt;&lt;div&gt;&lt;br&gt;&lt;/div&gt;&lt;div&gt;\&lt;/div&gt;&lt;div&gt;&lt;br&gt;&lt;/div&gt;&lt;div&gt;&lt;br&gt;&lt;/div&gt;&lt;div&gt;&lt;br&gt;&lt;/div&gt;&lt;div&gt;&lt;br&gt;&lt;/div&gt;" style="rounded=0;whiteSpace=wrap;html=1;" vertex="1" parent="1">
          <mxGeometry x="130" y="10" width="320" height="160" as="geometry" />
        </mxCell>
        <mxCell id="qXCgFIXHSSezZndKWwVs-28" style="edgeStyle=orthogonalEdgeStyle;rounded=0;orthogonalLoop=1;jettySize=auto;html=1;exitX=0.75;exitY=1;exitDx=0;exitDy=0;entryX=0;entryY=0.5;entryDx=0;entryDy=0;" edge="1" parent="1" source="qXCgFIXHSSezZndKWwVs-4" target="qXCgFIXHSSezZndKWwVs-26">
          <mxGeometry relative="1" as="geometry">
            <Array as="points">
              <mxPoint x="250" y="150" />
            </Array>
          </mxGeometry>
        </mxCell>
        <mxCell id="qXCgFIXHSSezZndKWwVs-47" style="edgeStyle=orthogonalEdgeStyle;rounded=0;orthogonalLoop=1;jettySize=auto;html=1;exitX=1;exitY=0.25;exitDx=0;exitDy=0;entryX=0.25;entryY=1;entryDx=0;entryDy=0;" edge="1" parent="1" source="qXCgFIXHSSezZndKWwVs-4" target="qXCgFIXHSSezZndKWwVs-6">
          <mxGeometry relative="1" as="geometry" />
        </mxCell>
        <mxCell id="qXCgFIXHSSezZndKWwVs-4" value="Load" style="rounded=0;whiteSpace=wrap;html=1;" vertex="1" parent="1">
          <mxGeometry x="220" y="70" width="40" height="70" as="geometry" />
        </mxCell>
        <mxCell id="qXCgFIXHSSezZndKWwVs-12" style="edgeStyle=orthogonalEdgeStyle;rounded=0;orthogonalLoop=1;jettySize=auto;html=1;exitX=1;exitY=0.5;exitDx=0;exitDy=0;entryX=0;entryY=0.25;entryDx=0;entryDy=0;" edge="1" parent="1" source="qXCgFIXHSSezZndKWwVs-5" target="qXCgFIXHSSezZndKWwVs-4">
          <mxGeometry relative="1" as="geometry">
            <Array as="points">
              <mxPoint x="200" y="88" />
              <mxPoint x="220" y="88" />
            </Array>
          </mxGeometry>
        </mxCell>
        <mxCell id="qXCgFIXHSSezZndKWwVs-22" style="edgeStyle=orthogonalEdgeStyle;rounded=0;orthogonalLoop=1;jettySize=auto;html=1;exitX=1;exitY=0.25;exitDx=0;exitDy=0;entryX=0;entryY=0.5;entryDx=0;entryDy=0;" edge="1" parent="1" source="qXCgFIXHSSezZndKWwVs-5" target="qXCgFIXHSSezZndKWwVs-21">
          <mxGeometry relative="1" as="geometry">
            <Array as="points">
              <mxPoint x="210" y="80" />
              <mxPoint x="210" y="50" />
            </Array>
          </mxGeometry>
        </mxCell>
        <mxCell id="qXCgFIXHSSezZndKWwVs-29" value="TMR" style="edgeStyle=orthogonalEdgeStyle;rounded=0;orthogonalLoop=1;jettySize=auto;html=1;exitX=0.25;exitY=1;exitDx=0;exitDy=0;fillColor=#a20025;strokeColor=#6F0000;entryX=0.25;entryY=0;entryDx=0;entryDy=0;" edge="1" parent="1" source="qXCgFIXHSSezZndKWwVs-5" target="qXCgFIXHSSezZndKWwVs-91">
          <mxGeometry x="-0.1428" relative="1" as="geometry">
            <mxPoint x="430" y="360" as="targetPoint" />
            <Array as="points">
              <mxPoint x="155" y="210" />
              <mxPoint x="420" y="210" />
            </Array>
            <mxPoint as="offset" />
          </mxGeometry>
        </mxCell>
        <mxCell id="qXCgFIXHSSezZndKWwVs-86" value="CRC" style="edgeStyle=orthogonalEdgeStyle;rounded=0;orthogonalLoop=1;jettySize=auto;html=1;exitX=0.5;exitY=1;exitDx=0;exitDy=0;fillColor=#a20025;strokeColor=#6F0000;entryX=0.409;entryY=-0.008;entryDx=0;entryDy=0;entryPerimeter=0;" edge="1" parent="1" source="qXCgFIXHSSezZndKWwVs-5" target="qXCgFIXHSSezZndKWwVs-91">
          <mxGeometry x="-0.2524" relative="1" as="geometry">
            <mxPoint x="440" y="480" as="targetPoint" />
            <Array as="points">
              <mxPoint x="170" y="190" />
              <mxPoint x="441" y="190" />
              <mxPoint x="441" y="390" />
              <mxPoint x="440" y="390" />
              <mxPoint x="440" y="520" />
            </Array>
            <mxPoint as="offset" />
          </mxGeometry>
        </mxCell>
        <mxCell id="qXCgFIXHSSezZndKWwVs-5" value="Buffer" style="rounded=0;whiteSpace=wrap;html=1;" vertex="1" parent="1">
          <mxGeometry x="140" y="70" width="60" height="40" as="geometry" />
        </mxCell>
        <mxCell id="qXCgFIXHSSezZndKWwVs-48" value="4x" style="edgeStyle=orthogonalEdgeStyle;rounded=0;orthogonalLoop=1;jettySize=auto;html=1;exitX=0.25;exitY=0;exitDx=0;exitDy=0;entryX=0;entryY=0.25;entryDx=0;entryDy=0;strokeWidth=4;" edge="1" parent="1" source="qXCgFIXHSSezZndKWwVs-6" target="qXCgFIXHSSezZndKWwVs-17">
          <mxGeometry x="0.0698" y="18" relative="1" as="geometry">
            <mxPoint y="1" as="offset" />
          </mxGeometry>
        </mxCell>
        <mxCell id="qXCgFIXHSSezZndKWwVs-6" value="&lt;font style=&quot;font-size: 10px;&quot;&gt;Decompressor&lt;/font&gt;" style="rounded=0;whiteSpace=wrap;html=1;rotation=90;" vertex="1" parent="1">
          <mxGeometry x="250" y="91.5" width="70" height="27" as="geometry" />
        </mxCell>
        <mxCell id="qXCgFIXHSSezZndKWwVs-7" value="4x" style="endArrow=classic;html=1;rounded=0;exitX=1;exitY=0.75;exitDx=0;exitDy=0;entryX=0;entryY=0.75;entryDx=0;entryDy=0;strokeWidth=4;" edge="1" parent="1" source="qXCgFIXHSSezZndKWwVs-1" target="qXCgFIXHSSezZndKWwVs-4">
          <mxGeometry x="0.4286" y="-7" width="50" height="50" relative="1" as="geometry">
            <mxPoint x="40" y="122.5" as="sourcePoint" />
            <mxPoint x="230" y="220" as="targetPoint" />
            <mxPoint y="1" as="offset" />
          </mxGeometry>
        </mxCell>
        <mxCell id="qXCgFIXHSSezZndKWwVs-10" style="edgeStyle=orthogonalEdgeStyle;rounded=0;orthogonalLoop=1;jettySize=auto;html=1;exitX=0.25;exitY=0;exitDx=0;exitDy=0;entryX=0;entryY=0.5;entryDx=0;entryDy=0;" edge="1" parent="1" source="qXCgFIXHSSezZndKWwVs-8" target="qXCgFIXHSSezZndKWwVs-5">
          <mxGeometry relative="1" as="geometry" />
        </mxCell>
        <mxCell id="qXCgFIXHSSezZndKWwVs-109" style="edgeStyle=orthogonalEdgeStyle;rounded=0;orthogonalLoop=1;jettySize=auto;html=1;exitX=0.75;exitY=0;exitDx=0;exitDy=0;entryX=0;entryY=0.5;entryDx=0;entryDy=0;" edge="1" parent="1" source="qXCgFIXHSSezZndKWwVs-8" target="qXCgFIXHSSezZndKWwVs-106">
          <mxGeometry relative="1" as="geometry" />
        </mxCell>
        <mxCell id="qXCgFIXHSSezZndKWwVs-110" style="edgeStyle=orthogonalEdgeStyle;rounded=0;orthogonalLoop=1;jettySize=auto;html=1;exitX=1;exitY=0;exitDx=0;exitDy=0;entryX=0;entryY=0.5;entryDx=0;entryDy=0;" edge="1" parent="1" source="qXCgFIXHSSezZndKWwVs-8" target="qXCgFIXHSSezZndKWwVs-107">
          <mxGeometry relative="1" as="geometry">
            <Array as="points">
              <mxPoint x="80" y="305" />
              <mxPoint x="80" y="384" />
            </Array>
          </mxGeometry>
        </mxCell>
        <mxCell id="qXCgFIXHSSezZndKWwVs-8" value="Demultiplexer" style="rounded=0;whiteSpace=wrap;html=1;rotation=90;" vertex="1" parent="1">
          <mxGeometry x="-20" y="220" width="140" height="30" as="geometry" />
        </mxCell>
        <mxCell id="qXCgFIXHSSezZndKWwVs-9" value="" style="shape=flexArrow;endArrow=classic;html=1;rounded=0;entryX=0.5;entryY=1;entryDx=0;entryDy=0;" edge="1" parent="1" target="qXCgFIXHSSezZndKWwVs-8">
          <mxGeometry width="50" height="50" relative="1" as="geometry">
            <mxPoint y="235" as="sourcePoint" />
            <mxPoint x="20" y="234.71" as="targetPoint" />
          </mxGeometry>
        </mxCell>
        <mxCell id="qXCgFIXHSSezZndKWwVs-23" style="edgeStyle=orthogonalEdgeStyle;rounded=0;orthogonalLoop=1;jettySize=auto;html=1;exitX=1;exitY=0.5;exitDx=0;exitDy=0;entryX=0.5;entryY=1;entryDx=0;entryDy=0;" edge="1" parent="1" source="qXCgFIXHSSezZndKWwVs-17" target="qXCgFIXHSSezZndKWwVs-20">
          <mxGeometry relative="1" as="geometry" />
        </mxCell>
        <mxCell id="qXCgFIXHSSezZndKWwVs-17" value="Diffrence" style="triangle;whiteSpace=wrap;html=1;" vertex="1" parent="1">
          <mxGeometry x="320" y="70" width="60" height="70" as="geometry" />
        </mxCell>
        <mxCell id="qXCgFIXHSSezZndKWwVs-39" style="edgeStyle=orthogonalEdgeStyle;rounded=0;orthogonalLoop=1;jettySize=auto;html=1;entryX=0.108;entryY=1.019;entryDx=0;entryDy=0;strokeWidth=4;entryPerimeter=0;" edge="1" parent="1" target="qXCgFIXHSSezZndKWwVs-44">
          <mxGeometry relative="1" as="geometry">
            <mxPoint x="450" y="120" as="sourcePoint" />
            <mxPoint x="490" y="180" as="targetPoint" />
            <Array as="points">
              <mxPoint x="470" y="120" />
              <mxPoint x="470" y="180" />
            </Array>
          </mxGeometry>
        </mxCell>
        <mxCell id="qXCgFIXHSSezZndKWwVs-153" style="edgeStyle=orthogonalEdgeStyle;rounded=0;orthogonalLoop=1;jettySize=auto;html=1;exitX=0.75;exitY=0;exitDx=0;exitDy=0;entryX=0;entryY=0.5;entryDx=0;entryDy=0;" edge="1" parent="1" source="qXCgFIXHSSezZndKWwVs-20" target="qXCgFIXHSSezZndKWwVs-152">
          <mxGeometry relative="1" as="geometry" />
        </mxCell>
        <mxCell id="qXCgFIXHSSezZndKWwVs-20" value="Catgegory" style="rounded=0;whiteSpace=wrap;html=1;rotation=90;" vertex="1" parent="1">
          <mxGeometry x="370" y="95" width="60" height="20" as="geometry" />
        </mxCell>
        <mxCell id="qXCgFIXHSSezZndKWwVs-85" style="edgeStyle=orthogonalEdgeStyle;rounded=0;orthogonalLoop=1;jettySize=auto;html=1;exitX=1;exitY=0.5;exitDx=0;exitDy=0;strokeWidth=4;" edge="1" parent="1" source="qXCgFIXHSSezZndKWwVs-21">
          <mxGeometry relative="1" as="geometry">
            <mxPoint x="530" y="370" as="targetPoint" />
            <Array as="points">
              <mxPoint x="460" y="50" />
              <mxPoint x="460" y="370" />
              <mxPoint x="520" y="370" />
            </Array>
          </mxGeometry>
        </mxCell>
        <mxCell id="qXCgFIXHSSezZndKWwVs-21" value="CRC-32" style="rounded=0;whiteSpace=wrap;html=1;" vertex="1" parent="1">
          <mxGeometry x="230" y="40" width="70" height="20" as="geometry" />
        </mxCell>
        <mxCell id="qXCgFIXHSSezZndKWwVs-30" style="edgeStyle=orthogonalEdgeStyle;rounded=0;orthogonalLoop=1;jettySize=auto;html=1;exitX=0.25;exitY=1;exitDx=0;exitDy=0;fillColor=#a20025;strokeColor=#6F0000;entryX=0.5;entryY=0;entryDx=0;entryDy=0;" edge="1" parent="1" source="qXCgFIXHSSezZndKWwVs-26" target="qXCgFIXHSSezZndKWwVs-91">
          <mxGeometry relative="1" as="geometry">
            <mxPoint x="450" y="530" as="targetPoint" />
            <Array as="points">
              <mxPoint x="385" y="180" />
              <mxPoint x="451" y="180" />
              <mxPoint x="451" y="390" />
              <mxPoint x="450" y="390" />
            </Array>
          </mxGeometry>
        </mxCell>
        <mxCell id="qXCgFIXHSSezZndKWwVs-87" value="NDE" style="edgeLabel;html=1;align=center;verticalAlign=middle;resizable=0;points=[];" vertex="1" connectable="0" parent="qXCgFIXHSSezZndKWwVs-30">
          <mxGeometry x="-0.2776" relative="1" as="geometry">
            <mxPoint x="-81" y="-77" as="offset" />
          </mxGeometry>
        </mxCell>
        <mxCell id="qXCgFIXHSSezZndKWwVs-136" style="edgeStyle=orthogonalEdgeStyle;rounded=0;orthogonalLoop=1;jettySize=auto;html=1;exitX=0.5;exitY=1;exitDx=0;exitDy=0;entryX=0.5;entryY=0;entryDx=0;entryDy=0;fillColor=#60a917;strokeColor=#2D7600;" edge="1" parent="1" source="qXCgFIXHSSezZndKWwVs-26" target="qXCgFIXHSSezZndKWwVs-134">
          <mxGeometry relative="1" as="geometry">
            <Array as="points">
              <mxPoint x="410" y="160" />
              <mxPoint x="410" y="460" />
              <mxPoint x="330" y="460" />
            </Array>
          </mxGeometry>
        </mxCell>
        <mxCell id="qXCgFIXHSSezZndKWwVs-26" value="Final" style="rounded=0;whiteSpace=wrap;html=1;" vertex="1" parent="1">
          <mxGeometry x="370" y="140" width="60" height="20" as="geometry" />
        </mxCell>
        <mxCell id="qXCgFIXHSSezZndKWwVs-43" style="edgeStyle=orthogonalEdgeStyle;rounded=0;orthogonalLoop=1;jettySize=auto;html=1;exitX=0.401;exitY=-0.094;exitDx=0;exitDy=0;entryX=0;entryY=0.5;entryDx=0;entryDy=0;exitPerimeter=0;" edge="1" parent="1" source="qXCgFIXHSSezZndKWwVs-44" target="qXCgFIXHSSezZndKWwVs-158">
          <mxGeometry relative="1" as="geometry">
            <mxPoint x="520" y="272" as="sourcePoint" />
            <mxPoint x="540" y="220" as="targetPoint" />
            <Array as="points">
              <mxPoint x="527" y="220" />
              <mxPoint x="545" y="220" />
            </Array>
          </mxGeometry>
        </mxCell>
        <mxCell id="qXCgFIXHSSezZndKWwVs-49" value="4x" style="edgeStyle=orthogonalEdgeStyle;rounded=0;orthogonalLoop=1;jettySize=auto;html=1;exitX=1;exitY=0.75;exitDx=0;exitDy=0;entryX=0;entryY=0.75;entryDx=0;entryDy=0;strokeWidth=4;" edge="1" parent="1" source="qXCgFIXHSSezZndKWwVs-4" target="qXCgFIXHSSezZndKWwVs-17">
          <mxGeometry x="0.6667" y="23" relative="1" as="geometry">
            <mxPoint as="offset" />
          </mxGeometry>
        </mxCell>
        <mxCell id="qXCgFIXHSSezZndKWwVs-54" style="edgeStyle=orthogonalEdgeStyle;rounded=0;orthogonalLoop=1;jettySize=auto;html=1;exitX=1;exitY=0.5;exitDx=0;exitDy=0;entryX=0.5;entryY=1;entryDx=0;entryDy=0;strokeWidth=8;" edge="1" parent="1" source="qXCgFIXHSSezZndKWwVs-52" target="qXCgFIXHSSezZndKWwVs-53">
          <mxGeometry relative="1" as="geometry" />
        </mxCell>
        <mxCell id="qXCgFIXHSSezZndKWwVs-52" value="collector" style="rounded=0;whiteSpace=wrap;html=1;" vertex="1" parent="1">
          <mxGeometry x="510" y="50" width="60" height="30" as="geometry" />
        </mxCell>
        <mxCell id="qXCgFIXHSSezZndKWwVs-55" style="edgeStyle=orthogonalEdgeStyle;rounded=0;orthogonalLoop=1;jettySize=auto;html=1;exitX=1;exitY=0.75;exitDx=0;exitDy=0;entryX=0.841;entryY=1.041;entryDx=0;entryDy=0;entryPerimeter=0;" edge="1" parent="1" source="qXCgFIXHSSezZndKWwVs-53" target="qXCgFIXHSSezZndKWwVs-52">
          <mxGeometry relative="1" as="geometry">
            <Array as="points">
              <mxPoint x="624" y="100" />
              <mxPoint x="560" y="100" />
              <mxPoint x="560" y="90" />
              <mxPoint x="561" y="90" />
            </Array>
          </mxGeometry>
        </mxCell>
        <mxCell id="qXCgFIXHSSezZndKWwVs-58" style="edgeStyle=orthogonalEdgeStyle;rounded=0;orthogonalLoop=1;jettySize=auto;html=1;exitX=1;exitY=0.5;exitDx=0;exitDy=0;entryX=0.5;entryY=0;entryDx=0;entryDy=0;strokeWidth=8;" edge="1" parent="1" source="qXCgFIXHSSezZndKWwVs-53" target="qXCgFIXHSSezZndKWwVs-56">
          <mxGeometry relative="1" as="geometry">
            <Array as="points">
              <mxPoint x="630" y="100" />
              <mxPoint x="707" y="100" />
            </Array>
          </mxGeometry>
        </mxCell>
        <mxCell id="qXCgFIXHSSezZndKWwVs-82" style="edgeStyle=orthogonalEdgeStyle;rounded=0;orthogonalLoop=1;jettySize=auto;html=1;exitX=0.5;exitY=0;exitDx=0;exitDy=0;entryX=0.5;entryY=0;entryDx=0;entryDy=0;strokeWidth=8;" edge="1" parent="1" source="qXCgFIXHSSezZndKWwVs-53" target="qXCgFIXHSSezZndKWwVs-76">
          <mxGeometry relative="1" as="geometry" />
        </mxCell>
        <mxCell id="qXCgFIXHSSezZndKWwVs-53" value="sorter" style="rounded=0;whiteSpace=wrap;html=1;rotation=90;" vertex="1" parent="1">
          <mxGeometry x="610" y="52.5" width="40" height="25" as="geometry" />
        </mxCell>
        <mxCell id="qXCgFIXHSSezZndKWwVs-60" style="edgeStyle=orthogonalEdgeStyle;rounded=0;orthogonalLoop=1;jettySize=auto;html=1;exitX=0.535;exitY=0.99;exitDx=0;exitDy=0;entryX=0.538;entryY=-0.033;entryDx=0;entryDy=0;strokeWidth=8;entryPerimeter=0;exitPerimeter=0;" edge="1" parent="1" source="qXCgFIXHSSezZndKWwVs-56" target="qXCgFIXHSSezZndKWwVs-59">
          <mxGeometry relative="1" as="geometry" />
        </mxCell>
        <mxCell id="qXCgFIXHSSezZndKWwVs-56" value="scorer" style="rounded=0;whiteSpace=wrap;html=1;" vertex="1" parent="1">
          <mxGeometry x="672" y="140" width="70" height="70" as="geometry" />
        </mxCell>
        <mxCell id="qXCgFIXHSSezZndKWwVs-59" value="decision" style="rounded=0;whiteSpace=wrap;html=1;" vertex="1" parent="1">
          <mxGeometry x="672" y="250" width="70" height="60" as="geometry" />
        </mxCell>
        <mxCell id="qXCgFIXHSSezZndKWwVs-62" value="scores" style="rounded=0;whiteSpace=wrap;html=1;" vertex="1" parent="1">
          <mxGeometry x="587" y="460" width="70" height="20" as="geometry" />
        </mxCell>
        <mxCell id="qXCgFIXHSSezZndKWwVs-63" value="" style="rounded=0;whiteSpace=wrap;html=1;" vertex="1" parent="1">
          <mxGeometry x="587" y="480" width="70" height="10" as="geometry" />
        </mxCell>
        <mxCell id="qXCgFIXHSSezZndKWwVs-64" value="" style="rounded=0;whiteSpace=wrap;html=1;" vertex="1" parent="1">
          <mxGeometry x="587" y="490" width="70" height="10" as="geometry" />
        </mxCell>
        <mxCell id="qXCgFIXHSSezZndKWwVs-66" value="" style="rounded=0;whiteSpace=wrap;html=1;" vertex="1" parent="1">
          <mxGeometry x="587" y="500" width="70" height="10" as="geometry" />
        </mxCell>
        <mxCell id="qXCgFIXHSSezZndKWwVs-67" value="" style="rounded=0;whiteSpace=wrap;html=1;" vertex="1" parent="1">
          <mxGeometry x="587" y="510" width="70" height="10" as="geometry" />
        </mxCell>
        <mxCell id="qXCgFIXHSSezZndKWwVs-68" value="" style="rounded=0;whiteSpace=wrap;html=1;" vertex="1" parent="1">
          <mxGeometry x="587" y="520" width="70" height="10" as="geometry" />
        </mxCell>
        <mxCell id="qXCgFIXHSSezZndKWwVs-69" value="" style="endArrow=classic;html=1;rounded=0;exitX=0;exitY=0.352;exitDx=0;exitDy=0;entryX=0.5;entryY=0;entryDx=0;entryDy=0;exitPerimeter=0;strokeWidth=8;" edge="1" parent="1" source="qXCgFIXHSSezZndKWwVs-56" target="qXCgFIXHSSezZndKWwVs-62">
          <mxGeometry width="50" height="50" relative="1" as="geometry">
            <mxPoint x="537" y="140" as="sourcePoint" />
            <mxPoint x="587" y="90" as="targetPoint" />
            <Array as="points">
              <mxPoint x="622" y="165" />
            </Array>
          </mxGeometry>
        </mxCell>
        <mxCell id="qXCgFIXHSSezZndKWwVs-73" style="edgeStyle=orthogonalEdgeStyle;rounded=0;orthogonalLoop=1;jettySize=auto;html=1;entryX=0.67;entryY=0.028;entryDx=0;entryDy=0;entryPerimeter=0;strokeWidth=2;" edge="1" parent="1">
          <mxGeometry relative="1" as="geometry">
            <mxPoint x="690" y="400" as="sourcePoint" />
            <mxPoint x="690.9000000000001" y="483.36" as="targetPoint" />
            <Array as="points">
              <mxPoint x="690" y="310" />
              <mxPoint x="691" y="310" />
            </Array>
          </mxGeometry>
        </mxCell>
        <mxCell id="qXCgFIXHSSezZndKWwVs-74" style="edgeStyle=orthogonalEdgeStyle;rounded=0;orthogonalLoop=1;jettySize=auto;html=1;exitX=0.75;exitY=1;exitDx=0;exitDy=0;entryX=0.871;entryY=-0.005;entryDx=0;entryDy=0;entryPerimeter=0;fillColor=#a20025;strokeColor=#6F0000;" edge="1" parent="1" source="qXCgFIXHSSezZndKWwVs-59">
          <mxGeometry relative="1" as="geometry">
            <mxPoint x="724.5" y="450" as="sourcePoint" />
            <mxPoint x="725.0700000000002" y="479.4" as="targetPoint" />
            <Array as="points">
              <mxPoint x="725" y="395" />
              <mxPoint x="725" y="395" />
            </Array>
          </mxGeometry>
        </mxCell>
        <mxCell id="qXCgFIXHSSezZndKWwVs-75" style="edgeStyle=orthogonalEdgeStyle;rounded=0;orthogonalLoop=1;jettySize=auto;html=1;exitX=0.5;exitY=1;exitDx=0;exitDy=0;entryX=0.763;entryY=0.003;entryDx=0;entryDy=0;entryPerimeter=0;fillColor=#60a917;strokeColor=#2D7600;" edge="1" parent="1" source="qXCgFIXHSSezZndKWwVs-59">
          <mxGeometry relative="1" as="geometry">
            <mxPoint x="707" y="450" as="sourcePoint" />
            <mxPoint x="706.71" y="480.36" as="targetPoint" />
          </mxGeometry>
        </mxCell>
        <mxCell id="qXCgFIXHSSezZndKWwVs-76" value="diff" style="rounded=0;whiteSpace=wrap;html=1;" vertex="1" parent="1">
          <mxGeometry x="747" y="460" width="70" height="20" as="geometry" />
        </mxCell>
        <mxCell id="qXCgFIXHSSezZndKWwVs-77" value="" style="rounded=0;whiteSpace=wrap;html=1;" vertex="1" parent="1">
          <mxGeometry x="747" y="480" width="70" height="10" as="geometry" />
        </mxCell>
        <mxCell id="qXCgFIXHSSezZndKWwVs-78" value="" style="rounded=0;whiteSpace=wrap;html=1;" vertex="1" parent="1">
          <mxGeometry x="747" y="490" width="70" height="10" as="geometry" />
        </mxCell>
        <mxCell id="qXCgFIXHSSezZndKWwVs-79" value="" style="rounded=0;whiteSpace=wrap;html=1;" vertex="1" parent="1">
          <mxGeometry x="747" y="500" width="70" height="10" as="geometry" />
        </mxCell>
        <mxCell id="qXCgFIXHSSezZndKWwVs-80" value="" style="rounded=0;whiteSpace=wrap;html=1;" vertex="1" parent="1">
          <mxGeometry x="747" y="510" width="70" height="10" as="geometry" />
        </mxCell>
        <mxCell id="qXCgFIXHSSezZndKWwVs-81" value="" style="rounded=0;whiteSpace=wrap;html=1;" vertex="1" parent="1">
          <mxGeometry x="747" y="520" width="70" height="10" as="geometry" />
        </mxCell>
        <mxCell id="qXCgFIXHSSezZndKWwVs-89" value="initizer" style="rounded=0;whiteSpace=wrap;html=1;" vertex="1" parent="1">
          <mxGeometry x="30" y="320" width="40" height="38" as="geometry" />
        </mxCell>
        <mxCell id="qXCgFIXHSSezZndKWwVs-91" value="error_catch" style="rounded=0;whiteSpace=wrap;html=1;" vertex="1" parent="1">
          <mxGeometry x="390" y="530" width="120" height="20" as="geometry" />
        </mxCell>
        <mxCell id="qXCgFIXHSSezZndKWwVs-92" value="" style="shape=flexArrow;endArrow=classic;html=1;rounded=0;exitX=0;exitY=0.5;exitDx=0;exitDy=0;" edge="1" parent="1" source="qXCgFIXHSSezZndKWwVs-89">
          <mxGeometry width="50" height="50" relative="1" as="geometry">
            <mxPoint x="290" y="280" as="sourcePoint" />
            <mxPoint y="340" as="targetPoint" />
          </mxGeometry>
        </mxCell>
        <mxCell id="qXCgFIXHSSezZndKWwVs-93" style="edgeStyle=orthogonalEdgeStyle;rounded=0;orthogonalLoop=1;jettySize=auto;html=1;exitX=1;exitY=0.5;exitDx=0;exitDy=0;entryX=0;entryY=0.82;entryDx=0;entryDy=0;entryPerimeter=0;" edge="1" parent="1" source="qXCgFIXHSSezZndKWwVs-91" target="qXCgFIXHSSezZndKWwVs-83">
          <mxGeometry relative="1" as="geometry" />
        </mxCell>
        <mxCell id="qXCgFIXHSSezZndKWwVs-100" value="CRC_sum" style="rounded=0;whiteSpace=wrap;html=1;" vertex="1" parent="1">
          <mxGeometry x="530" y="358" width="70" height="30" as="geometry" />
        </mxCell>
        <mxCell id="qXCgFIXHSSezZndKWwVs-101" style="edgeStyle=orthogonalEdgeStyle;rounded=0;orthogonalLoop=1;jettySize=auto;html=1;exitX=0.5;exitY=1;exitDx=0;exitDy=0;entryX=0.382;entryY=-0.014;entryDx=0;entryDy=0;entryPerimeter=0;strokeWidth=4;" edge="1" parent="1" source="qXCgFIXHSSezZndKWwVs-100" target="qXCgFIXHSSezZndKWwVs-83">
          <mxGeometry relative="1" as="geometry">
            <Array as="points">
              <mxPoint x="565" y="410" />
              <mxPoint x="673" y="410" />
            </Array>
          </mxGeometry>
        </mxCell>
        <mxCell id="qXCgFIXHSSezZndKWwVs-114" style="edgeStyle=orthogonalEdgeStyle;rounded=0;orthogonalLoop=1;jettySize=auto;html=1;exitX=1;exitY=0.25;exitDx=0;exitDy=0;entryX=0;entryY=0.5;entryDx=0;entryDy=0;strokeWidth=4;" edge="1" parent="1" source="qXCgFIXHSSezZndKWwVs-105" target="qXCgFIXHSSezZndKWwVs-100">
          <mxGeometry relative="1" as="geometry">
            <Array as="points">
              <mxPoint x="460" y="241" />
              <mxPoint x="460" y="373" />
            </Array>
          </mxGeometry>
        </mxCell>
        <mxCell id="qXCgFIXHSSezZndKWwVs-117" style="edgeStyle=orthogonalEdgeStyle;rounded=0;orthogonalLoop=1;jettySize=auto;html=1;exitX=1;exitY=0.5;exitDx=0;exitDy=0;fillColor=#a20025;strokeColor=#6F0000;" edge="1" parent="1" source="qXCgFIXHSSezZndKWwVs-105">
          <mxGeometry relative="1" as="geometry">
            <mxPoint x="420" y="530.3174409412201" as="targetPoint" />
          </mxGeometry>
        </mxCell>
        <mxCell id="qXCgFIXHSSezZndKWwVs-118" style="edgeStyle=orthogonalEdgeStyle;rounded=0;orthogonalLoop=1;jettySize=auto;html=1;exitX=1;exitY=0.5;exitDx=0;exitDy=0;fillColor=#a20025;strokeColor=#6F0000;" edge="1" parent="1" source="qXCgFIXHSSezZndKWwVs-105">
          <mxGeometry relative="1" as="geometry">
            <mxPoint x="440" y="529.9999999999999" as="targetPoint" />
          </mxGeometry>
        </mxCell>
        <mxCell id="qXCgFIXHSSezZndKWwVs-119" style="edgeStyle=orthogonalEdgeStyle;rounded=0;orthogonalLoop=1;jettySize=auto;html=1;exitX=1;exitY=0.5;exitDx=0;exitDy=0;entryX=0.5;entryY=0;entryDx=0;entryDy=0;fillColor=#a20025;strokeColor=#6F0000;" edge="1" parent="1" source="qXCgFIXHSSezZndKWwVs-105" target="qXCgFIXHSSezZndKWwVs-91">
          <mxGeometry relative="1" as="geometry" />
        </mxCell>
        <mxCell id="qXCgFIXHSSezZndKWwVs-126" style="edgeStyle=orthogonalEdgeStyle;rounded=0;orthogonalLoop=1;jettySize=auto;html=1;exitX=1;exitY=0.75;exitDx=0;exitDy=0;entryX=0.346;entryY=0.927;entryDx=0;entryDy=0;strokeWidth=4;entryPerimeter=0;" edge="1" parent="1" source="qXCgFIXHSSezZndKWwVs-105" target="qXCgFIXHSSezZndKWwVs-44">
          <mxGeometry relative="1" as="geometry">
            <mxPoint x="490" y="210" as="targetPoint" />
            <Array as="points">
              <mxPoint x="430" y="267" />
              <mxPoint x="430" y="211" />
            </Array>
          </mxGeometry>
        </mxCell>
        <mxCell id="qXCgFIXHSSezZndKWwVs-137" style="edgeStyle=orthogonalEdgeStyle;rounded=0;orthogonalLoop=1;jettySize=auto;html=1;exitX=1;exitY=1;exitDx=0;exitDy=0;entryX=0.5;entryY=0;entryDx=0;entryDy=0;fillColor=#60a917;strokeColor=#2D7600;" edge="1" parent="1" source="qXCgFIXHSSezZndKWwVs-105" target="qXCgFIXHSSezZndKWwVs-134">
          <mxGeometry relative="1" as="geometry">
            <Array as="points">
              <mxPoint x="410" y="280" />
              <mxPoint x="410" y="460" />
              <mxPoint x="330" y="460" />
            </Array>
          </mxGeometry>
        </mxCell>
        <mxCell id="qXCgFIXHSSezZndKWwVs-105" value="Core&amp;nbsp;" style="rounded=0;whiteSpace=wrap;html=1;" vertex="1" parent="1">
          <mxGeometry x="140" y="228" width="260" height="52" as="geometry" />
        </mxCell>
        <mxCell id="qXCgFIXHSSezZndKWwVs-115" style="edgeStyle=orthogonalEdgeStyle;rounded=0;orthogonalLoop=1;jettySize=auto;html=1;exitX=1;exitY=0.25;exitDx=0;exitDy=0;strokeWidth=4;" edge="1" parent="1" source="qXCgFIXHSSezZndKWwVs-106">
          <mxGeometry relative="1" as="geometry">
            <mxPoint x="530" y="370" as="targetPoint" />
            <Array as="points">
              <mxPoint x="460" y="305" />
              <mxPoint x="460" y="370" />
              <mxPoint x="530" y="370" />
            </Array>
          </mxGeometry>
        </mxCell>
        <mxCell id="qXCgFIXHSSezZndKWwVs-120" style="edgeStyle=orthogonalEdgeStyle;rounded=0;orthogonalLoop=1;jettySize=auto;html=1;exitX=1;exitY=0.5;exitDx=0;exitDy=0;entryX=0.25;entryY=0;entryDx=0;entryDy=0;fillColor=#a20025;strokeColor=#6F0000;" edge="1" parent="1" source="qXCgFIXHSSezZndKWwVs-106" target="qXCgFIXHSSezZndKWwVs-91">
          <mxGeometry relative="1" as="geometry" />
        </mxCell>
        <mxCell id="qXCgFIXHSSezZndKWwVs-122" style="edgeStyle=orthogonalEdgeStyle;rounded=0;orthogonalLoop=1;jettySize=auto;html=1;exitX=1;exitY=0.5;exitDx=0;exitDy=0;fillColor=#a20025;strokeColor=#6F0000;" edge="1" parent="1" source="qXCgFIXHSSezZndKWwVs-106" target="qXCgFIXHSSezZndKWwVs-91">
          <mxGeometry relative="1" as="geometry" />
        </mxCell>
        <mxCell id="qXCgFIXHSSezZndKWwVs-127" style="edgeStyle=orthogonalEdgeStyle;rounded=0;orthogonalLoop=1;jettySize=auto;html=1;exitX=1;exitY=0.75;exitDx=0;exitDy=0;entryX=0.571;entryY=1.05;entryDx=0;entryDy=0;strokeWidth=4;entryPerimeter=0;" edge="1" parent="1" source="qXCgFIXHSSezZndKWwVs-106" target="qXCgFIXHSSezZndKWwVs-44">
          <mxGeometry relative="1" as="geometry">
            <mxPoint x="490" y="240" as="targetPoint" />
            <Array as="points">
              <mxPoint x="470" y="331" />
              <mxPoint x="470" y="240" />
            </Array>
          </mxGeometry>
        </mxCell>
        <mxCell id="qXCgFIXHSSezZndKWwVs-138" style="edgeStyle=orthogonalEdgeStyle;rounded=0;orthogonalLoop=1;jettySize=auto;html=1;exitX=1;exitY=1;exitDx=0;exitDy=0;fillColor=#60a917;strokeColor=#2D7600;" edge="1" parent="1" source="qXCgFIXHSSezZndKWwVs-106">
          <mxGeometry relative="1" as="geometry">
            <mxPoint x="330" y="530" as="targetPoint" />
            <Array as="points">
              <mxPoint x="410" y="344" />
              <mxPoint x="410" y="460" />
              <mxPoint x="330" y="460" />
            </Array>
          </mxGeometry>
        </mxCell>
        <mxCell id="qXCgFIXHSSezZndKWwVs-106" value="Core&amp;nbsp;" style="rounded=0;whiteSpace=wrap;html=1;" vertex="1" parent="1">
          <mxGeometry x="140" y="292" width="260" height="52" as="geometry" />
        </mxCell>
        <mxCell id="qXCgFIXHSSezZndKWwVs-116" style="edgeStyle=orthogonalEdgeStyle;rounded=0;orthogonalLoop=1;jettySize=auto;html=1;exitX=1;exitY=0.25;exitDx=0;exitDy=0;entryX=0;entryY=0.5;entryDx=0;entryDy=0;strokeWidth=4;" edge="1" parent="1" source="qXCgFIXHSSezZndKWwVs-107" target="qXCgFIXHSSezZndKWwVs-100">
          <mxGeometry relative="1" as="geometry" />
        </mxCell>
        <mxCell id="qXCgFIXHSSezZndKWwVs-123" style="edgeStyle=orthogonalEdgeStyle;rounded=0;orthogonalLoop=1;jettySize=auto;html=1;exitX=1;exitY=0.5;exitDx=0;exitDy=0;entryX=0.25;entryY=0;entryDx=0;entryDy=0;fillColor=#a20025;strokeColor=#6F0000;" edge="1" parent="1" source="qXCgFIXHSSezZndKWwVs-107" target="qXCgFIXHSSezZndKWwVs-91">
          <mxGeometry relative="1" as="geometry" />
        </mxCell>
        <mxCell id="qXCgFIXHSSezZndKWwVs-125" style="edgeStyle=orthogonalEdgeStyle;rounded=0;orthogonalLoop=1;jettySize=auto;html=1;exitX=1;exitY=0.5;exitDx=0;exitDy=0;entryX=0.5;entryY=0;entryDx=0;entryDy=0;fillColor=#a20025;strokeColor=#6F0000;" edge="1" parent="1" source="qXCgFIXHSSezZndKWwVs-107" target="qXCgFIXHSSezZndKWwVs-91">
          <mxGeometry relative="1" as="geometry" />
        </mxCell>
        <mxCell id="qXCgFIXHSSezZndKWwVs-139" style="edgeStyle=orthogonalEdgeStyle;rounded=0;orthogonalLoop=1;jettySize=auto;html=1;exitX=1;exitY=1;exitDx=0;exitDy=0;entryX=0.5;entryY=0;entryDx=0;entryDy=0;fillColor=#60a917;strokeColor=#2D7600;" edge="1" parent="1" source="qXCgFIXHSSezZndKWwVs-107" target="qXCgFIXHSSezZndKWwVs-134">
          <mxGeometry relative="1" as="geometry">
            <Array as="points">
              <mxPoint x="410" y="410" />
              <mxPoint x="410" y="460" />
              <mxPoint x="330" y="460" />
            </Array>
          </mxGeometry>
        </mxCell>
        <mxCell id="qXCgFIXHSSezZndKWwVs-107" value="Core&amp;nbsp;" style="rounded=0;whiteSpace=wrap;html=1;" vertex="1" parent="1">
          <mxGeometry x="140" y="358" width="260" height="52" as="geometry" />
        </mxCell>
        <mxCell id="qXCgFIXHSSezZndKWwVs-108" style="edgeStyle=orthogonalEdgeStyle;rounded=0;orthogonalLoop=1;jettySize=auto;html=1;exitX=0.5;exitY=0;exitDx=0;exitDy=0;entryX=0.018;entryY=0.549;entryDx=0;entryDy=0;entryPerimeter=0;" edge="1" parent="1" source="qXCgFIXHSSezZndKWwVs-8" target="qXCgFIXHSSezZndKWwVs-105">
          <mxGeometry relative="1" as="geometry" />
        </mxCell>
        <mxCell id="qXCgFIXHSSezZndKWwVs-124" style="edgeStyle=orthogonalEdgeStyle;rounded=0;orthogonalLoop=1;jettySize=auto;html=1;exitX=1;exitY=0.5;exitDx=0;exitDy=0;entryX=0.416;entryY=-0.003;entryDx=0;entryDy=0;entryPerimeter=0;fillColor=#a20025;strokeColor=#6F0000;" edge="1" parent="1" source="qXCgFIXHSSezZndKWwVs-107" target="qXCgFIXHSSezZndKWwVs-91">
          <mxGeometry relative="1" as="geometry" />
        </mxCell>
        <mxCell id="qXCgFIXHSSezZndKWwVs-129" style="edgeStyle=orthogonalEdgeStyle;rounded=0;orthogonalLoop=1;jettySize=auto;html=1;exitX=1;exitY=0.75;exitDx=0;exitDy=0;entryX=0;entryY=0.5;entryDx=0;entryDy=0;strokeWidth=4;" edge="1" parent="1" source="qXCgFIXHSSezZndKWwVs-107">
          <mxGeometry relative="1" as="geometry">
            <mxPoint x="414" y="401.5" as="sourcePoint" />
            <mxPoint x="504" y="276.5" as="targetPoint" />
            <Array as="points">
              <mxPoint x="400" y="402" />
              <mxPoint x="480" y="402" />
              <mxPoint x="480" y="277" />
            </Array>
          </mxGeometry>
        </mxCell>
        <mxCell id="qXCgFIXHSSezZndKWwVs-144" value="irq" style="edgeStyle=orthogonalEdgeStyle;rounded=0;orthogonalLoop=1;jettySize=auto;html=1;exitX=0.5;exitY=1;exitDx=0;exitDy=0;" edge="1" parent="1" source="qXCgFIXHSSezZndKWwVs-134">
          <mxGeometry y="20" relative="1" as="geometry">
            <mxPoint x="330" y="570" as="targetPoint" />
            <Array as="points">
              <mxPoint x="330" y="560" />
              <mxPoint x="330" y="560" />
            </Array>
            <mxPoint as="offset" />
          </mxGeometry>
        </mxCell>
        <mxCell id="qXCgFIXHSSezZndKWwVs-134" value="irq" style="rounded=0;whiteSpace=wrap;html=1;" vertex="1" parent="1">
          <mxGeometry x="280" y="530" width="100" height="20" as="geometry" />
        </mxCell>
        <mxCell id="qXCgFIXHSSezZndKWwVs-145" value="" style="endArrow=classic;html=1;rounded=0;entryX=0.5;entryY=1;entryDx=0;entryDy=0;shape=flexArrow;" edge="1" parent="1" target="qXCgFIXHSSezZndKWwVs-83">
          <mxGeometry width="50" height="50" relative="1" as="geometry">
            <mxPoint x="702" y="580" as="sourcePoint" />
            <mxPoint x="730" y="540" as="targetPoint" />
          </mxGeometry>
        </mxCell>
        <mxCell id="qXCgFIXHSSezZndKWwVs-44" value="core_collect" style="rounded=0;whiteSpace=wrap;html=1;rotation=90;" vertex="1" parent="1">
          <mxGeometry x="450" y="220" width="128.75" height="20.63" as="geometry" />
        </mxCell>
        <mxCell id="qXCgFIXHSSezZndKWwVs-156" value="FIFO" style="edgeStyle=orthogonalEdgeStyle;rounded=0;orthogonalLoop=1;jettySize=auto;html=1;exitX=0.75;exitY=1;exitDx=0;exitDy=0;fillColor=#a20025;strokeColor=#6F0000;" edge="1" parent="1" source="qXCgFIXHSSezZndKWwVs-152">
          <mxGeometry x="-0.7946" y="10" relative="1" as="geometry">
            <mxPoint x="430" y="531.269821893601" as="targetPoint" />
            <Array as="points">
              <mxPoint x="430" y="130" />
            </Array>
            <mxPoint as="offset" />
          </mxGeometry>
        </mxCell>
        <mxCell id="qXCgFIXHSSezZndKWwVs-152" value="&amp;gt;&amp;gt;" style="rounded=0;whiteSpace=wrap;html=1;" vertex="1" parent="1">
          <mxGeometry x="420" y="110" width="30" height="20" as="geometry" />
        </mxCell>
        <mxCell id="qXCgFIXHSSezZndKWwVs-158" value="&amp;gt;&amp;gt;" style="rounded=0;whiteSpace=wrap;html=1;rotation=-90;" vertex="1" parent="1">
          <mxGeometry x="530" y="110" width="30" height="20" as="geometry" />
        </mxCell>
        <mxCell id="qXCgFIXHSSezZndKWwVs-159" style="edgeStyle=orthogonalEdgeStyle;rounded=0;orthogonalLoop=1;jettySize=auto;html=1;exitX=1;exitY=0.5;exitDx=0;exitDy=0;entryX=0.554;entryY=1.005;entryDx=0;entryDy=0;entryPerimeter=0;" edge="1" parent="1" source="qXCgFIXHSSezZndKWwVs-158" target="qXCgFIXHSSezZndKWwVs-52">
          <mxGeometry relative="1" as="geometry" />
        </mxCell>
      </root>
    </mxGraphModel>
  </diagram>
</mxfile>
